<?xml version="1.0" encoding="UTF-8"?>
<svg width="1200pt" height="1200pt" version="1.1" viewBox="0 0 1200 1200" xmlns="http://www.w3.org/2000/svg">
 <path d="m363.04 912.35c-18.527 0-33.602-15.145-33.602-33.762 0-18.621 15.074-33.766 33.602-33.766 18.531 0 33.605 15.145 33.605 33.766 0 18.617-15.074 33.762-33.605 33.762m-36.559-219.64c-57.809 0-104.84 47.254-104.84 105.34v265.64h209.68v-265.64c0-58.086-47.031-105.34-104.84-105.34m-208.1-548.7-104.74 184.82h1172.4l-106.83-184.82zm834.04 222.9v69.473c0 10.273-1.5 20.195-4.2383 29.59-0.29297 1-0.59766 2-0.91797 2.9883-0.17578 0.55078-0.36719 1.1016-0.55469 1.6484-0.30859 0.90234-0.62109 1.8086-0.95312 2.6992-0.25 0.66797-0.51562 1.3203-0.77734 1.9805-0.39453 0.98828-0.79297 1.9766-1.2109 2.9492-0.49609 1.1484-1 2.2852-1.5352 3.4102-0.30859 0.64844-0.63672 1.2773-0.96094 1.918-0.37891 0.76562-0.76562 1.5273-1.1641 2.2812-0.36719 0.68359-0.74219 1.3555-1.1172 2.0312-0.37891 0.67187-0.75781 1.3438-1.1484 2.0078-0.42578 0.71484-0.85156 1.4258-1.293 2.1289-0.35547 0.56641-0.71484 1.1289-1.0781 1.6914-0.50391 0.77344-1.0078 1.5469-1.5273 2.3086-0.23828 0.34375-0.48828 0.67969-0.72656 1.0234-16.684 23.652-42.699 39.809-71.809 43.738-0.54297 0.074219-1.082 0.14453-1.625 0.21094-0.89844 0.10547-1.8008 0.19922-2.7031 0.28125-0.85547 0.078126-1.7148 0.14063-2.5742 0.19922-0.69531 0.046875-1.3945 0.097657-2.0977 0.13281-1.5078 0.066406-3.0195 0.10938-4.543 0.11328-0.097656 0-0.19141 0.007813-0.28516 0.007813s-0.1875-0.007813-0.28125-0.007813c-1.5273-0.003906-3.043-0.046875-4.5508-0.11719-0.69922-0.03125-1.3945-0.082032-2.0898-0.12891-0.86328-0.058593-1.7227-0.12109-2.582-0.19922-0.89844-0.082031-1.8008-0.17578-2.6953-0.28125-0.54688-0.066406-1.0938-0.13672-1.6367-0.21094-29.145-3.9375-55.18-20.125-71.859-43.82-0.21875-0.30859-0.44141-0.60937-0.65234-0.91797-0.53906-0.78125-1.0547-1.5781-1.5742-2.375-0.34375-0.53906-0.69141-1.0742-1.0312-1.6172-0.44922-0.72656-0.89062-1.457-1.3242-2.1914-0.37891-0.63672-0.74219-1.2812-1.1055-1.9219-0.39062-0.70312-0.78125-1.4023-1.1641-2.1133-0.375-0.71094-0.73438-1.4297-1.0898-2.1445-0.34375-0.68359-0.69922-1.3594-1.0273-2.0547-0.42187-0.88281-0.8125-1.7852-1.2109-2.6875-0.55859-1.2617-1.0898-2.5352-1.5977-3.8242-0.23047-0.58984-0.47266-1.1719-0.69141-1.7695-0.35156-0.92969-0.67187-1.8711-0.99609-2.8125-0.17188-0.50781-0.34766-1.0156-0.51172-1.5234-0.33203-1.0234-0.64453-2.0508-0.94531-3.0859-2.7305-9.375-4.2266-19.281-4.2266-29.535v-69.473zm-247.58 0v69.473c0 10.273-1.5 20.195-4.2422 29.59-0.28906 1-0.59375 2-0.91406 2.9883-0.17969 0.55078-0.36719 1.1016-0.55859 1.6484-0.30859 0.90234-0.61719 1.8086-0.94922 2.6992-0.25 0.66797-0.51562 1.3203-0.77734 1.9805-0.39453 0.98828-0.79297 1.9766-1.2109 2.9492-0.49609 1.1484-1.0039 2.2852-1.5391 3.4102-0.30859 0.64844-0.63672 1.2773-0.95703 1.918-0.37891 0.76562-0.76562 1.5273-1.168 2.2812-0.36328 0.68359-0.73828 1.3555-1.1133 2.0312-0.37891 0.67187-0.75781 1.3438-1.1523 2.0078-0.42187 0.71484-0.85156 1.4258-1.2891 2.1289-0.35547 0.56641-0.71484 1.1289-1.0781 1.6914-0.50391 0.77344-1.0078 1.5469-1.5312 2.3086-0.23438 0.34375-0.48438 0.67969-0.72266 1.0234-16.684 23.652-42.699 39.809-71.809 43.738-0.54297 0.074219-1.0859 0.14453-1.6289 0.21094-0.89453 0.10547-1.8008 0.19922-2.7031 0.28125-0.85156 0.078126-1.7109 0.14063-2.5703 0.19922-0.69531 0.046875-1.3984 0.097657-2.0977 0.13281-1.5078 0.066406-3.0195 0.10938-4.543 0.11328-0.097656 0-0.19141 0.007813-0.28516 0.007813s-0.1875-0.007813-0.28125-0.007813c-1.5273-0.003906-3.043-0.046875-4.5547-0.11719-0.69531-0.03125-1.3945-0.082032-2.0859-0.12891-0.86719-0.058593-1.7227-0.12109-2.582-0.19922-0.90234-0.082031-1.8008-0.17578-2.6953-0.28125-0.54688-0.066406-1.0938-0.13672-1.6406-0.21094-29.141-3.9375-55.18-20.125-71.855-43.82-0.21875-0.30859-0.44141-0.60937-0.65234-0.91797-0.53906-0.78125-1.0547-1.5781-1.5742-2.375-0.34766-0.53906-0.69141-1.0742-1.0312-1.6172-0.45312-0.72656-0.89062-1.457-1.3242-2.1914-0.37891-0.63672-0.74219-1.2812-1.1055-1.9219-0.39063-0.70312-0.78516-1.4023-1.1641-2.1133-0.375-0.71094-0.73438-1.4297-1.0938-2.1445-0.34375-0.68359-0.69531-1.3594-1.0234-2.0547-0.42188-0.88281-0.8125-1.7852-1.2109-2.6875-0.55859-1.2617-1.0898-2.5352-1.5977-3.8242-0.23047-0.58984-0.47266-1.1719-0.69531-1.7695-0.34766-0.92969-0.67188-1.8711-0.99219-2.8125-0.17188-0.50781-0.35156-1.0156-0.51562-1.5234-0.32812-1.0234-0.64453-2.0508-0.94531-3.0859-2.7305-9.375-4.2227-19.281-4.2227-29.535v-69.473zm-247.58 0v69.473c0 10.273-1.5 20.195-4.2422 29.59-0.28906 1-0.59375 2-0.91406 2.9883-0.17969 0.55078-0.36719 1.1016-0.55859 1.6484-0.30859 0.90234-0.61719 1.8086-0.95312 2.6992-0.24609 0.66797-0.51562 1.3203-0.77344 1.9805-0.39453 0.98828-0.79297 1.9766-1.2148 2.9492-0.49219 1.1484-1 2.2852-1.5352 3.4102-0.30859 0.64844-0.63672 1.2773-0.95703 1.918-0.38281 0.76562-0.76562 1.5273-1.168 2.2812-0.36328 0.68359-0.73828 1.3555-1.1172 2.0312-0.37891 0.67187-0.75781 1.3438-1.1484 2.0078-0.42188 0.71484-0.85156 1.4258-1.2891 2.1289-0.35547 0.56641-0.71484 1.1289-1.082 1.6914-0.5 0.77344-1.0039 1.5469-1.5273 2.3086-0.23828 0.34375-0.48438 0.67969-0.72266 1.0234-16.684 23.652-42.699 39.809-71.809 43.738-0.54297 0.074219-1.0859 0.14453-1.6289 0.21094-0.89453 0.10547-1.8008 0.19922-2.7031 0.28125-0.85156 0.078126-1.7109 0.14063-2.5703 0.19922-0.69922 0.046875-1.3984 0.097657-2.0977 0.13281-1.5078 0.066406-3.0195 0.10938-4.543 0.11328-0.097656 0-0.19531 0.007813-0.28906 0.007813-0.089844 0-0.18359-0.007813-0.27734-0.007813-1.5273-0.003906-3.043-0.046875-4.5547-0.11719-0.69531-0.03125-1.3945-0.082032-2.0898-0.12891-0.86328-0.058593-1.7227-0.12109-2.582-0.19922-0.89844-0.082031-1.7969-0.17578-2.6953-0.28125-0.54297-0.066406-1.0898-0.13672-1.6367-0.21094-29.141-3.9375-55.18-20.125-71.855-43.82-0.21875-0.30859-0.44141-0.60937-0.65234-0.91797-0.53906-0.78125-1.0586-1.5781-1.5742-2.375-0.34766-0.53906-0.69141-1.0742-1.0312-1.6172-0.45312-0.72656-0.89062-1.457-1.3281-2.1914-0.375-0.63672-0.73828-1.2812-1.1016-1.9219-0.39453-0.70312-0.78516-1.4023-1.1641-2.1133-0.375-0.71094-0.73438-1.4297-1.0938-2.1445-0.34375-0.68359-0.69531-1.3594-1.0234-2.0547-0.42187-0.88281-0.81641-1.7852-1.2109-2.6875-0.55859-1.2617-1.0898-2.5352-1.5977-3.8242-0.23047-0.58984-0.47656-1.1719-0.69531-1.7695-0.34766-0.92969-0.67188-1.8711-0.99219-2.8125-0.17578-0.50781-0.35156-1.0156-0.51562-1.5234-0.33203-1.0234-0.64453-2.0508-0.94531-3.0859-2.7305-9.375-4.2227-19.281-4.2227-29.535v-69.473zm-397.74 164.45c-1.6562-0.79687-3.293-1.6523-4.9102-2.543-32.516-17.906-54.613-52.625-54.613-92.438v-69.473h209.68v69.473c0 10.273-1.5 20.195-4.2422 29.59-0.28906 1.0039-0.59766 2-0.91406 2.9883-0.17969 0.55078-0.36719 1.1016-0.55859 1.6445-0.30859 0.90625-0.61719 1.8125-0.95312 2.7031-0.25 0.66797-0.51562 1.3203-0.77734 1.9805-0.39062 0.98828-0.78906 1.9766-1.2109 2.9492-0.49609 1.1445-1 2.2852-1.5352 3.4102-0.30859 0.64453-0.63672 1.2812-0.96094 1.918-0.37891 0.76562-0.76172 1.5312-1.1641 2.2812-0.36328 0.68359-0.73828 1.3555-1.1172 2.0312-0.37891 0.67187-0.75781 1.3438-1.1484 2.0078-0.42187 0.71484-0.85156 1.4258-1.293 2.1328-0.35156 0.5625-0.71484 1.125-1.0742 1.6875-0.50781 0.77344-1.0078 1.5469-1.5312 2.3086-0.23828 0.34375-0.48438 0.67969-0.72266 1.0234-16.688 23.652-42.699 39.809-71.812 43.738-0.54297 0.074219-1.082 0.14453-1.625 0.21094-0.89844 0.10547-1.8008 0.19922-2.7031 0.28125-0.85547 0.078126-1.7109 0.14063-2.5703 0.19922-0.69922 0.046875-1.3984 0.097657-2.0977 0.13281-1.5078 0.066406-3.0234 0.11328-4.543 0.11328-0.097656 0-0.19141 0.007813-0.28906 0.007813-2.0781 0-4.1445-0.074219-6.2109-0.19922-0.49609-0.03125-0.98438-0.078125-1.4727-0.11328-1.6367-0.12109-3.2617-0.27344-4.8867-0.47266-0.47266-0.054687-0.94141-0.11719-1.4102-0.17969-1.8008-0.24219-3.5898-0.52734-5.3711-0.86328-0.23047-0.042968-0.46094-0.082031-0.69141-0.125-4.1445-0.8125-8.2305-1.875-12.242-3.1797-0.38672-0.125-0.76563-0.26172-1.1523-0.39453-1.5195-0.51172-3.0273-1.0664-4.5273-1.6523-0.55859-0.21484-1.1211-0.43359-1.6797-0.66406-1.3789-0.56641-2.7461-1.1758-4.0977-1.7969-0.52344-0.24609-1.0586-0.46484-1.5742-0.71875m1140.5-94.98c0 39.578-21.848 74.109-54.051 92.109-1.5391 0.85938-3.1016 1.6875-4.6836 2.4688-0.19531 0.097656-0.38672 0.20703-0.58594 0.30078-1.875 0.91016-3.7773 1.75-5.6914 2.543-0.36719 0.15234-0.73828 0.28906-1.1055 0.4375-1.6641 0.66406-3.3398 1.293-5.0352 1.8672-0.32031 0.10938-0.64062 0.22266-0.96094 0.32812-4.1055 1.3555-8.2891 2.4688-12.531 3.3047-0.09375 0.019531-0.19141 0.03125-0.28516 0.050781-1.9258 0.375-3.8633 0.68359-5.8125 0.94922-0.45312 0.0625-0.89844 0.11719-1.3516 0.17188-1.6523 0.20703-3.3203 0.36328-4.9844 0.48828-0.49609 0.035156-0.98828 0.085937-1.4844 0.11719-2.0898 0.125-4.1836 0.20313-6.2812 0.20313-0.09375 0-0.1875-0.007813-0.28125-0.007813-1.5234 0-3.0391-0.046875-4.5508-0.11719-0.69922-0.03125-1.3945-0.082032-2.0898-0.12891-0.86328-0.058593-1.7227-0.12109-2.582-0.19922-0.89844-0.082031-1.7969-0.17578-2.6953-0.28125-0.54688-0.066406-1.0898-0.13672-1.6367-0.21094-29.125-3.9336-55.148-20.102-71.828-43.773-0.23047-0.32813-0.46875-0.65234-0.69141-0.97656-0.52734-0.76953-1.0391-1.5547-1.5469-2.3359-0.35938-0.55469-0.71484-1.1094-1.0625-1.668-0.44531-0.70703-0.875-1.4258-1.2969-2.1445-0.39062-0.66016-0.76562-1.3203-1.1406-1.9844-0.38281-0.68359-0.76562-1.3633-1.1328-2.0547-0.39062-0.73828-0.76562-1.4922-1.1445-2.2383-0.32422-0.65234-0.66406-1.3008-0.97656-1.9609-0.49609-1.0469-0.96875-2.1094-1.4297-3.1719-0.46484-1.0703-0.91016-2.1523-1.3359-3.2383-0.25391-0.63672-0.51172-1.2695-0.75-1.9102-0.33984-0.90234-0.65625-1.8203-0.96875-2.7344-0.17969-0.53906-0.36719-1.0742-0.54297-1.6133-0.32422-1-0.63281-2.0039-0.92578-3.0195-2.7383-9.3867-4.2305-19.305-4.2305-29.57v-69.473h209.68zm-168.24 500.59c0 10.516-8.4844 19.039-18.949 19.039h-412.81c-10.469 0-18.949-8.5234-18.949-19.039v-263.3c0-10.516 8.4805-19.039 18.949-19.039h412.81c10.465 0 18.949 8.5234 18.949 19.039zm100.93-362.24c-0.24219 0.0625-0.47656 0.14062-0.71484 0.20312-1.293 0.34766-2.5938 0.66016-3.9023 0.96875-0.6875 0.16797-1.375 0.32812-2.0625 0.48438-1.2539 0.27734-2.5117 0.54688-3.7734 0.78906-0.8125 0.15625-1.625 0.29688-2.4375 0.4375-1.6914 0.29688-3.3867 0.56641-5.0938 0.80469-1.3438 0.1875-2.6914 0.37109-4.043 0.51953-0.89062 0.097657-1.7891 0.17188-2.6836 0.25391-1.3594 0.12109-2.7188 0.22656-4.0781 0.3125-0.77344 0.046874-1.5391 0.097656-2.3125 0.12891-2.0781 0.097656-4.1602 0.15625-6.2461 0.16016-0.058594 0-0.125 0.003906-0.1875 0.003906h-0.14844c-2.0703-0.003906-4.1367-0.066406-6.1875-0.16016-0.67969-0.03125-1.3516-0.066406-2.0234-0.10156-1.6133-0.097657-3.2188-0.22266-4.8203-0.37109-1.2383-0.11328-2.4766-0.25781-3.707-0.40625-0.97656-0.11328-1.9531-0.23438-2.9258-0.375-1.2969-0.17969-2.582-0.37891-3.8672-0.59375-0.17969-0.03125-0.35547-0.066406-0.53516-0.097656-37.457-6.4648-69.961-27.625-91.41-57.363-0.45312-0.62891-0.89844-1.2578-1.3398-1.8945-0.61719-0.88672-1.2422-1.7734-1.8438-2.6758-0.94141-1.4141-1.8555-2.8516-2.75-4.3047-0.44141-0.72266-0.87109-1.457-1.3047-2.1875-0.30469-0.51953-0.625-1.0352-0.92578-1.5586-0.30078 0.51953-0.61719 1.0312-0.92188 1.5469-0.43359 0.73828-0.86719 1.4766-1.3125 2.2031-0.89453 1.4492-1.8086 2.8867-2.7461 4.3008-0.60156 0.90625-1.2305 1.7969-1.8516 2.6875-0.4375 0.62891-0.87891 1.2539-1.3281 1.875-21.449 29.742-53.949 50.906-91.406 57.371-0.18359 0.03125-0.36328 0.066406-0.54688 0.097656-1.2812 0.21484-2.5664 0.41406-3.8633 0.59375-0.97266 0.14062-1.9531 0.26172-2.9297 0.375-1.2305 0.14844-2.4609 0.29297-3.6992 0.40625-1.6016 0.14844-3.2109 0.27344-4.8281 0.37109-0.66797 0.035156-1.3438 0.070312-2.0156 0.10156-2.0586 0.09375-4.1211 0.15625-6.1914 0.16016h-0.14844-0.14844c-2.0703-0.003906-4.1367-0.066406-6.1914-0.16016-0.67578-0.03125-1.3477-0.066406-2.0195-0.10156-1.6133-0.097657-3.2188-0.22266-4.8203-0.37109-1.2422-0.11328-2.4766-0.25781-3.707-0.40625-0.98047-0.11328-1.9531-0.23438-2.9258-0.375-1.2969-0.17969-2.582-0.37891-3.8672-0.59375-0.17969-0.03125-0.35938-0.066406-0.53516-0.097656-37.473-6.4648-69.984-27.641-91.434-57.395-0.42969-0.60156-0.85938-1.207-1.2852-1.8164-0.63281-0.91016-1.2734-1.8125-1.8867-2.7383-0.93359-1.4023-1.8359-2.8281-2.7227-4.2617-0.45703-0.75-0.90234-1.5078-1.3477-2.2656-0.29688-0.50391-0.60938-1-0.89844-1.5078-0.30859 0.53906-0.63672 1.0664-0.95312 1.5977-0.41797 0.71094-0.83594 1.4258-1.2695 2.1289-0.89844 1.4648-1.8242 2.9141-2.7734 4.3438-0.58594 0.88281-1.1953 1.7461-1.8008 2.6172-0.46094 0.65234-0.91797 1.3086-1.3867 1.957-0.72266 1-1.4531 2-2.2031 2.9844-0.011719 0.015625-0.027344 0.035156-0.042969 0.050781-21.438 28.133-52.98 48.066-89.137 54.305-0.18359 0.03125-0.36328 0.066406-0.54688 0.097656-1.2852 0.21484-2.5703 0.41406-3.8633 0.59375-0.97266 0.14062-1.9531 0.26172-2.9336 0.375-1.2305 0.14844-2.4609 0.29297-3.6992 0.40625-1.6016 0.14844-3.2109 0.27344-4.8242 0.37109-0.66797 0.035156-1.3438 0.070312-2.0195 0.10156-2.0547 0.09375-4.1172 0.15625-6.1914 0.16016h-0.14453-0.14844c-2.0742-0.003906-4.1367-0.066406-6.1914-0.16016-0.67578-0.03125-1.3477-0.066406-2.0195-0.10156-1.6172-0.097657-3.2188-0.22266-4.8203-0.37109-1.2422-0.11328-2.4766-0.25781-3.7109-0.40625-0.97656-0.11328-1.9531-0.23438-2.9258-0.375-1.293-0.17969-2.582-0.37891-3.8633-0.59375-0.18359-0.03125-0.35937-0.066406-0.53516-0.097656-37.473-6.4648-69.984-27.641-91.434-57.395-0.42969-0.60156-0.85937-1.207-1.2852-1.8164-0.63281-0.91016-1.2734-1.8125-1.8867-2.7383-0.93359-1.4023-1.8359-2.8281-2.7227-4.2617-0.45703-0.75-0.90234-1.5078-1.3516-2.2656-0.29297-0.50391-0.60547-1-0.89453-1.5078-0.30859 0.53906-0.63672 1.0664-0.95313 1.5977-0.41797 0.71094-0.83594 1.4258-1.2695 2.1289-0.90234 1.4648-1.8242 2.9141-2.7773 4.3438-0.58203 0.88281-1.1914 1.7461-1.8008 2.6172-0.45703 0.65234-0.91406 1.3086-1.3828 1.957-0.72656 1-1.457 2-2.207 2.9844-0.007812 0.015625-0.023437 0.035156-0.039062 0.050781-21.438 28.133-52.98 48.066-89.137 54.305-0.1875 0.03125-0.36719 0.066406-0.54688 0.097656-1.2852 0.21484-2.5703 0.41406-3.8633 0.59375-0.97266 0.14062-1.9531 0.26172-2.9336 0.375-1.2305 0.14844-2.4609 0.29297-3.6992 0.40625-1.6016 0.14844-3.2109 0.27344-4.8242 0.37109-0.66797 0.035156-1.3438 0.070312-2.0195 0.10156-2.0547 0.09375-4.1172 0.15625-6.1914 0.16016h-0.14453-0.15234c-2.0703-0.003906-4.1328-0.066406-6.1875-0.16016-0.67578-0.03125-1.3477-0.066406-2.0195-0.10156-1.6172-0.097657-3.2188-0.22266-4.8203-0.37109-1.2422-0.11328-2.4766-0.25781-3.7109-0.40625-0.97656-0.11328-1.9531-0.23438-2.9258-0.375-1.2969-0.17969-2.582-0.37891-3.8633-0.59375-0.18359-0.03125-0.35938-0.066406-0.53516-0.097656-37.473-6.4648-69.984-27.641-91.434-57.395-0.43359-0.60156-0.85938-1.207-1.2852-1.8164-0.63672-0.91016-1.2734-1.8125-1.8867-2.7383-0.93359-1.4023-1.8398-2.8281-2.7266-4.2617-0.45703-0.75-0.89844-1.5078-1.3477-2.2656-0.29688-0.50391-0.60547-1-0.89844-1.5078-0.30469 0.53906-0.63281 1.0664-0.94922 1.5977-0.42188 0.71094-0.83594 1.4258-1.2695 2.1289-0.90234 1.4648-1.8242 2.9141-2.7773 4.3438-0.58203 0.88281-1.1953 1.7461-1.8008 2.6172-0.45703 0.65234-0.91797 1.3086-1.3828 1.957-0.72656 1-1.457 2-2.207 2.9844-0.007813 0.015625-0.023438 0.035156-0.039063 0.050781-21.438 28.133-52.984 48.066-89.141 54.305-0.18359 0.03125-0.36328 0.066406-0.54297 0.097656-1.2852 0.21484-2.5703 0.41406-3.8633 0.59375-0.97266 0.14062-1.9531 0.26172-2.9336 0.375-1.2305 0.14844-2.4609 0.29297-3.6992 0.40625-1.6016 0.14844-3.2109 0.27344-4.8242 0.37109-0.67188 0.035156-1.3438 0.070312-2.0195 0.10156-2.0547 0.09375-4.1172 0.15625-6.1914 0.16016h-0.14844c-0.058594 0-0.11719-0.003906-0.17969-0.003906-2.0781-0.003906-4.1523-0.0625-6.2227-0.15625-0.75391-0.035156-1.5078-0.082031-2.2578-0.12891-1.3906-0.082032-2.7812-0.19141-4.1602-0.32031-0.84766-0.074219-1.6953-0.14062-2.5391-0.23438-1.8477-0.19922-3.6836-0.43359-5.5195-0.70312-1.1406-0.17188-2.2617-0.375-3.3945-0.57031-0.85547-0.14844-1.7148-0.29688-2.5703-0.46094-1.2148-0.23438-2.418-0.48047-3.6211-0.74219-0.73438-0.16016-1.457-0.33594-2.1875-0.50781-2.1953-0.52344-4.375-1.0898-6.5352-1.7109-0.66016-0.1875-1.3242-0.36328-1.9844-0.5625v490h120.08v-265.64c0-79.082 64.031-143.42 142.74-143.42 78.703 0 142.73 64.336 142.73 143.42v265.64h667.91v-490.23c-1.4648 0.45312-2.9531 0.86328-4.4414 1.2695z" fill="#fff" fill-rule="evenodd"/>
</svg>
