<?xml version="1.0" encoding="UTF-8"?>
<svg width="128pt" height="128pt" version="1.1" viewBox="0 0 128 128" xmlns="http://www.w3.org/2000/svg">
 <path d="m103.11 54.43c0.57812-2.0977 0.875-4.2578 0.88672-6.4297-0.011719-5.7305-2.0703-11.27-5.8047-15.613-3.7383-4.3477-8.9023-7.2148-14.57-8.082-1.1484-6.1562-5.1172-11.418-10.723-14.211-5.6055-2.793-12.199-2.793-17.805 0-5.6055 2.793-9.5742 8.0547-10.723 14.211-5.668 0.86719-10.832 3.7344-14.57 8.082-3.7344 4.3438-5.793 9.8828-5.8047 15.613 0.011719 2.1719 0.30859 4.332 0.89062 6.4258-5.3438 4.6719-8.5469 11.324-8.8633 18.414s2.2773 14 7.1836 19.129c4.9023 5.1289 11.691 8.0312 18.789 8.0312h10v16c0 1.0625 0.42188 2.0781 1.1719 2.8281s1.7656 1.1719 2.8281 1.1719h16c1.0625 0 2.0781-0.42188 2.8281-1.1719s1.1719-1.7656 1.1719-2.8281v-16h10c7.0977 0 13.883-2.9023 18.789-8.0312s7.5-12.039 7.1836-19.129-3.5156-13.742-8.8594-18.41z" fill="#fff"/>
</svg>
